<svg width="38" height="38" viewBox="0 0 38 38" fill="none" xmlns="http://www.w3.org/2000/svg">
<path d="M22.1667 20.9792H15.8333C15.1842 20.9792 14.6458 21.5176 14.6458 22.1667C14.6458 22.8159 15.1842 23.3542 15.8333 23.3542H22.1667C22.8158 23.3542 23.3542 22.8159 23.3542 22.1667C23.3542 21.5176 22.8158 20.9792 22.1667 20.9792Z" fill="white"/>
<path d="M15.8333 17.0208H19C19.6492 17.0208 20.1875 16.4824 20.1875 15.8333C20.1875 15.1841 19.6492 14.6458 19 14.6458H15.8333C15.1842 14.6458 14.6458 15.1841 14.6458 15.8333C14.6458 16.4824 15.1842 17.0208 15.8333 17.0208Z" fill="white"/>
<path d="M25.6342 3.16675H12.3817C6.61834 3.16675 3.18251 6.60258 3.18251 12.3659V25.6184C3.18251 31.3817 6.61834 34.8176 12.3817 34.8176H25.6342C31.3975 34.8176 34.8333 31.3817 34.8333 25.6184V12.3659C34.8333 6.60258 31.3975 3.16675 25.6342 3.16675ZM28.5 23.7501C28.5 26.9167 26.9167 28.5001 23.75 28.5001H14.25C11.0833 28.5001 9.49999 26.9167 9.49999 23.7501V14.2501C9.49999 11.0834 11.0833 9.50008 14.25 9.50008H20.5833C23.75 9.50008 25.3333 11.0834 25.3333 14.2501V15.8334C25.3333 16.7042 26.0458 17.4167 26.9167 17.4167C27.7875 17.4167 28.5 18.1292 28.5 19.0001V23.7501Z" fill="white"/>
</svg>
