<?xml version="1.0" encoding="UTF-8" standalone="no"?>
<!-- Created with Inkscape (http://www.inkscape.org/) -->

<svg
   version="1.1"
   id="svg2"
   xml:space="preserve"
   width="4133.3335"
   height="2666.6667"
   viewBox="0 0 4133.3335 2666.6667"
   sodipodi:docname="iStock-1302476316.eps"
   xmlns:inkscape="http://www.inkscape.org/namespaces/inkscape"
   xmlns:sodipodi="http://sodipodi.sourceforge.net/DTD/sodipodi-0.dtd"
   xmlns="http://www.w3.org/2000/svg"
   xmlns:svg="http://www.w3.org/2000/svg"><defs
     id="defs6" /><sodipodi:namedview
     id="namedview4"
     pagecolor="#ffffff"
     bordercolor="#666666"
     borderopacity="1.0"
     inkscape:pageshadow="2"
     inkscape:pageopacity="0.0"
     inkscape:pagecheckerboard="0" /><g
     id="g8"
     inkscape:groupmode="layer"
     inkscape:label="ink_ext_XXXXXX"
     transform="matrix(1.3333333,0,0,-1.3333333,0,2666.6667)"><g
       id="g10"
       transform="scale(0.1)"><path
         d="M 31000,20000 V 0 H 0 v 20000 h 31000"
         style="fill:#e8e2e4;fill-opacity:1;fill-rule:nonzero;stroke:none"
         id="path12" /><path
         d="m 6097.48,6355.3 c 1194.53,2293.9 -936.94,4247 1276.5,6825.3 1097.58,1278.5 1800.57,1218.3 2579.13,3031.7 583.09,1357.7 2301.69,2316 3811.09,1467.6 1026,590.1 2359.3,-294.9 2899.5,-1626.1 311.1,136.5 1224.5,630.7 2039.1,22.9 956.6,226.9 2159,-247.1 2688.9,-1481.1 707.5,-1648 1181.1,-1552.9 2283,-2616.3 1578,-1522.9 420.8,-2883.4 1432.1,-5005.1 1677.4,-3519 -2236.7,-6399.802 -2236.7,-6399.802 -542.2,26.004 -13917.85,194.403 -13917.85,194.403 0,0 -4852.46,1750.399 -2854.77,5586.499"
         style="fill:#002969;fill-opacity:1;fill-rule:nonzero;stroke:none"
         id="path14" /><path
         d="M 17698.2,12.3008 H 8735.14 C 8804.09,3222.1 10015.3,4646.9 10132.1,5981.6 c 19,217.3 1012.1,340.7 1701.8,374.7 1569.4,75.9 4508.4,179.6 4565.5,-170 486.5,-2982.7 1235.2,-3136.5 1298.8,-6173.9992"
         style="fill:#01609a;fill-opacity:1;fill-rule:nonzero;stroke:none"
         id="path16" /><path
         d="m 10644.8,12701.3 c 670,589.7 1720.5,738.5 3175.5,658 2303.3,-127.4 3605.1,-1756.6 3605.1,-1756.6 14,-1123.3 -485.1,-2506.8 -1159.2,-2680.9 256.7,-1190.7 735.5,-3008 943.6,-3656 221.1,-869 -7009.6,-1149.3 -7146.6,-86.6 -53.3,413.4 591.7,1964.9 667.2,2346.2 157.7,797.4 -672.3,-1916.6 -672.3,-1916.6 -2164.59,499.1 -2864.29,4055.7 586.7,7092.5"
         style="fill:#01609a;fill-opacity:1;fill-rule:nonzero;stroke:none"
         id="path18" /><path
         d="m 12444.5,15241.9 -378.7,-2086.5 c -58.5,-532 1988.1,-628.2 2073.2,-52.4 l -139.4,843 -1555.1,1295.9"
         style="fill:#fdb88e;fill-opacity:1;fill-rule:nonzero;stroke:none"
         id="path20" /><path
         d="m 13132.2,6727 c 2792.7,-641.7 4874.9,735.2 5075.2,2505.6 262.1,2315.6 -2042.8,3563.1 -3265.7,3936.8 0,0 1469.5,-1621.4 1284.1,-1908.9 -429.3,-665.7 -1586.4,-3158.8 -2988.3,-3455.1 -195.6,-147.9 -394.1,-1012 -105.3,-1078.4"
         style="fill:#01609a;fill-opacity:1;fill-rule:nonzero;stroke:none"
         id="path22" /><path
         d="m 12304.3,15127.1 c -30.4,-1006.7 711.8,-1681.2 1446.7,-1676.9 510.1,3 846.8,505.1 979,796.5 0.5,1.1 1.3,2.5 1.7,3.6 63.3,130.4 104.1,271.6 122.6,412.4 7.8,62.2 9.1,122.1 8.6,182.9 -0.2,45.9 -1.5,92.6 -1.7,140.8 0,77.4 8.5,159 16.7,252.3 25.3,291.1 -21.2,421.5 -74.2,526.3 -253.1,501 -725.8,234.2 -1072.1,1040.1 -223.4,519.2 -1401.5,-823.7 -1427.3,-1678"
         style="fill:#fdb88e;fill-opacity:1;fill-rule:nonzero;stroke:none"
         id="path24" /><path
         d="m 13286.3,14701.4 c 25.2,-230.9 -204.4,-413.2 -436.8,-311.6 -70.4,30.8 -125.8,90.1 -151.7,162.5 -86.6,242.2 117.9,461.5 350.5,412.5 128.6,-27.1 223.7,-132.8 238,-263.4"
         style="fill:#ed715d;fill-opacity:1;fill-rule:nonzero;stroke:none"
         id="path26" /><path
         d="m 14510.5,14554.5 c -5.1,-143.2 89.5,-266.4 221.2,-304.2 63.3,130.4 104.1,271.6 122.6,412.4 7.8,62.2 9.1,122.1 8.6,182.9 -12,1.9 -24.3,3.2 -36.8,3.7 -168.5,5.8 -309.8,-126.4 -315.6,-294.8"
         style="fill:#ed715d;fill-opacity:1;fill-rule:nonzero;stroke:none"
         id="path28" /><path
         d="m 14435.8,15043.5 c 244.4,-33.4 359.6,93.5 365.3,100 12.4,14.1 11,35.6 -3.1,48 -14,12.3 -35.4,11 -47.8,-3 -6.3,-7 -145.9,-155.2 -460.1,-37.1 -17.6,6.7 -37.1,-2.3 -43.7,-19.9 -6.6,-17.5 2.3,-37.1 19.8,-43.7 62.3,-23.4 118.8,-37.3 169.6,-44.3"
         style="fill:#002869;fill-opacity:1;fill-rule:nonzero;stroke:none"
         id="path30" /><path
         d="m 13379.2,15076.4 c 152.1,-12.5 264.2,42.8 271.7,46.6 16.8,8.5 23.4,28.9 14.9,45.6 -8.4,16.8 -28.8,23.4 -45.6,15 v 0 c -10.7,-5.4 -266.3,-129.7 -520.4,82.7 -14.4,12 -35.8,10.1 -47.9,-4.3 -12,-14.4 -10.1,-35.8 4.3,-47.9 112.7,-94.2 226,-129.8 323,-137.7"
         style="fill:#002869;fill-opacity:1;fill-rule:nonzero;stroke:none"
         id="path32" /><path
         d="m 13909.8,14409.5 c 39.1,-6 80,-3.4 117.7,8.8 63.5,20.6 108.5,66 123.4,124.7 19.2,75.4 -24.6,140.7 -67,203.8 -21,31.4 -42.7,63.8 -55.7,96.3 -45,112.3 -38.2,297 -38.1,298.8 0.7,18.8 -14.1,34.6 -32.6,35.4 -18.7,0.7 -34.6,-13.9 -35.3,-32.6 -0.3,-8.2 -7.5,-201 42.9,-326.9 15.7,-39.1 39.4,-74.5 62.4,-108.8 37.2,-55.4 69.3,-103.3 57.6,-149.3 -12.4,-48.7 -54.5,-69 -78.5,-76.8 -57,-18.4 -126.5,-6.5 -168.9,29 -14.4,12 -35.8,10.2 -47.9,-4.2 -12,-14.4 -10.1,-35.8 4.3,-47.9 31.7,-26.5 72.5,-43.6 115.7,-50.3"
         style="fill:#ed715d;fill-opacity:1;fill-rule:nonzero;stroke:none"
         id="path34" /><path
         d="m 14144.9,14220.5 c -9.3,2 -19.4,0 -27.4,-6.4 -201.6,-160.4 -478.1,51.3 -480.8,53.4 -14,11.2 -35,8.7 -46.1,-5.7 -11.2,-14.4 -8.7,-35 5.7,-46.2 12.9,-10.2 320.6,-245.4 562.1,-52.9 14.2,11.3 16.6,31.9 5.3,46.1 -4.9,6.2 -11.6,10.2 -18.8,11.7"
         style="fill:#ed715d;fill-opacity:1;fill-rule:nonzero;stroke:none"
         id="path36" /><path
         d="m 13840.6,13400.9 c -169.4,7.7 -751.8,69 -1220.8,538.9 -13,13.1 -13,34.3 0.1,47.3 13.1,13.1 34.3,13.1 47.3,0 523.4,-524.4 1212.9,-520.3 1219.8,-520.3 17.8,0.6 33.7,-14.5 33.9,-33 0.3,-18.5 -14.5,-33.7 -33,-34 -4,0 -20.5,-0.2 -47.3,1.1"
         style="fill:#ed715d;fill-opacity:1;fill-rule:nonzero;stroke:none"
         id="path38" /><path
         d="m 13764.7,17684.9 c -104.5,155.4 -2076.4,936.5 -3310.1,-962.3 -333.8,-513.8 -1842.15,-6735.8 -1842.15,-6735.8 621.55,1340.9 1504.55,1585 2893.45,2417.7 1361.7,816.5 986.2,1898.9 1240.3,2928.2 215.6,873.2 1367.3,754.2 1228.1,1387.2 -201.4,916 -209.6,965 -209.6,965"
         style="fill:#002869;fill-opacity:1;fill-rule:nonzero;stroke:none"
         id="path40" /><path
         d="M 23590.3,7.10156 H 14097.9 C 14191,2527.9 15395.1,3742.5 15776.1,4822.3 c 158.7,449.7 5149.9,751.7 5300,100 364.1,-1580.9 2377.6,-3122.6 2514.2,-4915.19844"
         style="fill:#fdb88e;fill-opacity:1;fill-rule:nonzero;stroke:none"
         id="path42" /><path
         d="m 21762,9958.2 c -569.9,1055.4 -1546.9,2102.3 -3530.3,2102.4 -3850,0.1 -2819.5,-4670.7 -2862.9,-5429.9 -60,-1050.8 -96.9,-2090.1 238.6,-2207.1 1634,-569.5 3653.9,-575.4 5508.5,145.8 341.8,133 6.7,1490.1 11.9,2194.3 0,0 1568.3,1464.7 634.2,3194.5"
         style="fill:#ed715d;fill-opacity:1;fill-rule:nonzero;stroke:none"
         id="path44" /><path
         d="m 18883.2,8892.1 c -59.5,207.9 -192.4,413 -232.9,504.6 -85.8,194.5 -120.5,402.6 -222.2,412.5 -228.9,22.4 29.2,-585.9 -76.2,-662.8 -71.6,1.8 -215.6,166.2 -303.5,291.9 -105.4,150.5 -290.3,597.1 -395.7,566.4 -166.8,-48.6 59.4,-389.4 121.5,-505.9 -65.5,120.7 -222.4,582.2 -345.4,489 -130.2,-98.7 182.3,-613.6 226.1,-693.8 -22.9,37.8 -215.8,591 -346.3,551 -176.6,-54.2 179.4,-622.4 223.2,-702.5 -29.4,47.5 -178.1,518.1 -340.1,453.4 -82.4,-33 167.8,-572.9 211.4,-653.1 192.4,-353.6 805.2,-908.7 881.9,-1077.9 l 766.1,240.7 c 0,0 -40,270.4 -75.2,394.8 -43.9,155.7 -70.4,313.7 -92.7,391.7"
         style="fill:#8c4430;fill-opacity:1;fill-rule:nonzero;stroke:none"
         id="path46" /><path
         d="m 18150.3,7792.8 c -29,-167.1 1661.4,-3987 3686.8,-2699.8 2419,1537.4 -97.2,5412.4 -634.6,5684.6 87.6,-1949.6 -986.9,-3327.6 -2029.3,-2435.9 -211.1,153.5 -975.9,-258.2 -1022.9,-548.9"
         style="fill:#ed715d;fill-opacity:1;fill-rule:nonzero;stroke:none"
         id="path48" /><path
         d="m 21004.9,4766.2 c 50.7,0 101.6,2 152.6,6 46.4,10.1 32.6,73.4 -8.6,72.2 -793.3,-62.8 -1517.6,371.3 -2155.8,1293.6 -522.1,754.4 -785.6,1568.5 -788.2,1576.6 -6.2,19.2 -26.7,29.8 -45.9,23.7 -19.1,-6.2 -29.7,-26.7 -23.6,-45.9 2.7,-8.2 269.5,-832.7 797.7,-1595.9 311.3,-449.8 651.3,-791.1 1010.6,-1014.5 338.1,-210.2 693.7,-315.8 1061.2,-315.8"
         style="fill:#6c2a1a;fill-opacity:1;fill-rule:nonzero;stroke:none"
         id="path50" /><path
         d="m 18938.7,6414 c 197.5,88 440.1,117.8 536.2,145.6 204.3,59.2 386,166.3 459,94.7 164.1,-161 -467.8,-354 -459,-484.2 47.3,-53.6 265.8,-58.4 418.6,-45.1 183.1,16 644.1,161.1 688.3,60.6 69.9,-159 -336.6,-204.6 -465.8,-231.8 134.6,27.3 589.1,203.5 596.6,49.3 8,-163.1 -587.4,-254.4 -676.9,-272.3 43.6,6.7 591.5,214.2 644.7,88.6 71.9,-170.2 -592.2,-262.4 -681.8,-280.3 55.3,8 511.5,196.3 566,30.6 27.7,-84.3 -546.9,-239.4 -636.4,-257.5 -394.5,-79.7 -1213.6,33.4 -1392.5,-16.5 l -307.7,741.7 c 0,0 232.9,143.1 350.9,196 147.5,66.4 285.7,147.6 359.8,180.6"
         style="fill:#8c4430;fill-opacity:1;fill-rule:nonzero;stroke:none"
         id="path52" /><path
         d="m 18628.7,5169.8 c 29,-167.2 -4026,-1678.1 -4932.9,2042.3 -600.5,2463.4 1987.3,5001.5 4357.4,4813.3 -2903.5,-2310.1 -2052.9,-5381.8 174.8,-5694.3 211.1,153.5 353.7,-870.6 400.7,-1161.3"
         style="fill:#ed715d;fill-opacity:1;fill-rule:nonzero;stroke:none"
         id="path54" /><path
         d="m 18150.3,6208.4 c 17.7,0 33.2,12.8 36,30.8 3.1,19.9 -10.4,38.6 -30.3,41.7 -1763,278.6 -2055.8,1419.6 -2058.6,1431.1 -4.7,19.6 -24.4,31.8 -43.9,27 -19.6,-4.7 -31.7,-24.4 -27,-44 2.9,-12.3 75.8,-306 374.7,-638.1 274.2,-304.5 799.2,-698.8 1743.4,-848 1.9,-0.3 3.8,-0.5 5.7,-0.5"
         style="fill:#6c2a1a;fill-opacity:1;fill-rule:nonzero;stroke:none"
         id="path56" /><path
         d="m 16749.2,4686.4 c 503.5,0 1099,81.4 1691.6,351.2 18.3,8.4 26.4,30 18.1,48.3 -8.4,18.3 -30,26.4 -48.3,18.1 -1461.5,-665.4 -2943.5,-164.3 -2958.3,-159.1 -19,6.5 -39.8,-3.5 -46.5,-22.5 -6.6,-19 3.5,-39.8 22.5,-46.4 9.1,-3.2 559.5,-189.6 1320.9,-189.6"
         style="fill:#6c2a1a;fill-opacity:1;fill-rule:nonzero;stroke:none"
         id="path58" /><path
         d="m 20881.7,7206 c 15.3,0 29.5,9.6 34.6,24.9 6.4,19.1 -4,39.8 -23.1,46.1 -717.4,238.7 -1536.6,1022.3 -1544.8,1030.2 -14.5,14 -37.6,13.6 -51.5,-1 -14,-14.5 -13.6,-37.6 0.9,-51.5 34,-32.7 839.2,-802.9 1572.4,-1046.8 3.8,-1.3 7.7,-1.9 11.5,-1.9"
         style="fill:#6c2a1a;fill-opacity:1;fill-rule:nonzero;stroke:none"
         id="path60" /><path
         d="m 18890.9,13503 274.1,-1768.1 c 50.2,-456 -1598.2,-489.4 -1671.1,4.3 l 63.6,652.7 1333.4,1111.1"
         style="fill:#8c4430;fill-opacity:1;fill-rule:nonzero;stroke:none"
         id="path62" /><path
         d="m 19144.8,13306.1 c -187.8,-912.4 -999.9,-1360.8 -1660.3,-1199.8 -458.4,111.7 -654,635.5 -710.8,926 -0.1,1 -0.6,2.4 -0.7,3.5 -29.2,130.9 -35.7,266.7 -22.2,397.3 6.2,57.7 17.8,111.9 31.3,166.5 10.1,41.3 21.2,82.9 31.6,126.3 16.6,69.6 26.4,144.9 38.9,230.7 39.5,267.3 109.2,374.7 179.3,457.7 334.8,396.8 703.2,55.7 1187,706.9 312,419.5 1085.2,-1040.8 925.9,-1815.1"
         style="fill:#8c4430;fill-opacity:1;fill-rule:nonzero;stroke:none"
         id="path64" /><path
         d="m 18154.7,13177.4 c -72,-202.4 95.7,-415.5 326.5,-373.8 70,12.7 132.5,54.2 171.3,113.9 129.7,199.4 -7.5,440.4 -227.3,446 -121.5,3.1 -229.7,-71.6 -270.5,-186.1"
         style="fill:#6c2a1a;fill-opacity:1;fill-rule:nonzero;stroke:none"
         id="path66" /><path
         d="m 17037,13262.3 c -26,-130 -137.4,-220.6 -264,-226.5 -29.2,130.9 -35.7,266.7 -22.2,397.3 6.2,57.7 17.8,111.9 31.3,166.5 11.2,-0.9 22.6,-2.3 33.9,-4.6 152.9,-30.8 251.8,-179.9 221,-332.7"
         style="fill:#6c2a1a;fill-opacity:1;fill-rule:nonzero;stroke:none"
         id="path68" /><path
         d="m 18889.6,12412 c -133.4,-104.7 -614.9,-438.1 -1276.9,-387.7 -18.4,1.4 -32.2,17.4 -30.8,35.9 1.5,18.4 17.5,32.2 35.9,30.8 738.8,-56.1 1258.7,396.7 1264,401.2 13,12.1 35,11 47.2,-2.9 12.3,-13.8 11,-35 -2.8,-47.2 -3,-2.7 -15.5,-13.5 -36.6,-30.1"
         style="fill:#6c2a1a;fill-opacity:1;fill-rule:nonzero;stroke:none"
         id="path70" /><path
         d="m 17210.4,13687.5 c -227.4,18.3 -306.3,155.8 -310.2,162.8 -8.4,15.2 -2.8,34.3 12.3,42.7 15.2,8.3 34.2,2.9 42.7,-12.2 4.3,-7.6 101,-169.1 408.2,-124.8 17.3,2.6 33.1,-9.4 35.6,-26.6 2.5,-17.2 -9.4,-33.1 -26.6,-35.6 -60.9,-8.8 -114.7,-10.1 -162,-6.3"
         style="fill:#002969;fill-opacity:1;fill-rule:nonzero;stroke:none"
         id="path72" /><path
         d="m 18195.6,13470.9 c -139.8,19.3 -230,91.7 -236,96.7 -13.4,11 -15.3,30.8 -4.3,44.2 11,13.4 30.8,15.4 44.2,4.4 v 0 c 8.6,-7.1 214.4,-170.6 486.5,-29.9 15.4,7.9 34.4,1.9 42.3,-13.5 8,-15.4 2,-34.4 -13.4,-42.3 -120.7,-62.5 -230.1,-71.8 -319.3,-59.6"
         style="fill:#002969;fill-opacity:1;fill-rule:nonzero;stroke:none"
         id="path74" /><path
         d="m 17514.8,12988.1 c -36.4,3 -72.7,14.1 -104,33.1 -52.8,32.1 -83.6,82.6 -84.4,138.6 -1.2,71.9 52.2,121.3 103.8,169.1 25.6,23.7 52.1,48.3 70.7,74.7 64.5,91.5 97.9,259.1 98.2,260.8 3.3,17.1 20.1,28.1 36.9,24.8 17,-3.3 28.1,-19.8 24.8,-36.8 -1.5,-7.4 -36.3,-182.5 -108.5,-285 -22.4,-31.9 -51.4,-58.7 -79.4,-84.6 -45.3,-41.9 -84.4,-78.1 -83.7,-122.1 0.7,-46.4 34.3,-73.7 54.2,-85.8 47.3,-28.8 112.4,-32.9 158.2,-10 15.5,7.7 34.4,1.5 42.2,-14.1 7.7,-15.5 1.4,-34.4 -14.1,-42.1 -34.2,-17.1 -74.6,-23.8 -114.9,-20.6"
         style="fill:#6c2a1a;fill-opacity:1;fill-rule:nonzero;stroke:none"
         id="path76" /><path
         d="m 18323.5,16023.8 c 153.9,118.5 2350,238 2938.7,-2035.2 295.1,-1139.8 169.8,-1302 1091.8,-2346.8 l 227.5,-3095.2 c -490.9,1321.5 -1576.3,1435.2 -2569.5,2108.7 -826.6,560.5 -1144.7,864.7 -1183.2,2514.1 -26.1,1118.3 -1119,1428.2 -773.9,2004.9 499.4,834.6 268.6,849.5 268.6,849.5"
         style="fill:#002869;fill-opacity:1;fill-rule:nonzero;stroke:none"
         id="path78" /><path
         d="m 17282.1,12862.3 c -15.1,0.6 -29.6,-8.4 -35.3,-23.4 -7.3,-18.8 2.1,-39.8 20.9,-47.1 114.9,-44.1 256.2,-79.3 397.7,-99.1 20.1,-2.7 38.4,11.2 41.2,31.1 2.8,20 -11.1,38.4 -31.1,41.2 -136.2,19 -271.8,52.7 -381.6,94.9 -3.9,1.5 -7.8,2.3 -11.8,2.4"
         style="fill:#6c2a1a;fill-opacity:1;fill-rule:nonzero;stroke:none"
         id="path80" /><path
         d="m 14333.1,8086.1 c 177.8,163.2 423.9,280.9 515.8,344.4 195.1,135.2 349.4,312.9 452.1,263.1 230.8,-112.2 -369.5,-540.6 -314,-675.3 69.2,-39.9 302.1,32.5 459.1,100.8 188,81.9 624.4,399 706.8,308.3 130.4,-143.4 -283.6,-335.8 -410.7,-410.5 132.8,76.7 551.2,424.4 613.9,263.9 66.4,-169.8 -531.3,-477.6 -619.7,-528.4 43.8,22.6 550,436.6 650.8,322.5 136.6,-154.6 -533.6,-487.8 -622,-538.5 55.7,28 471.6,389.2 588.1,233.2 59.2,-79.4 -493.8,-447.4 -582.1,-498.3 C 15382,7047 14475.1,6876 14303.5,6759.7 l -588.8,675.7 c 0,0 195.7,234 301.7,332 132.6,122.5 250,257.5 316.7,318.7"
         style="fill:#fdb88e;fill-opacity:1;fill-rule:nonzero;stroke:none"
         id="path82" /><path
         d="m 14459.3,6691.2 c -45.8,-183.7 -2446.3,-1519 -4401.2,-1082.4 0,0 378.6,3703.4 527,3256.4 387.7,-1167.5 1893.9,-1504.7 3253,-1160.7 284.7,61.5 704.3,-695.2 621.2,-1013.3"
         style="fill:#01609a;fill-opacity:1;fill-rule:nonzero;stroke:none"
         id="path84" /><path
         d="m 11037.5,5429.1 c 52.9,0 107.5,0.8 163.8,2.5 639.9,19.8 1622.2,171.4 2667.8,781.8 17.4,10.1 23.3,32.5 13.1,49.9 -10.1,17.4 -32.4,23.3 -49.8,13.1 -1975.2,-1153 -3746.8,-674.5 -3764.4,-669.5 -19.4,5.4 -39.6,-5.9 -45,-25.2 -5.5,-19.4 5.8,-39.6 25.2,-45 16.9,-4.8 390.2,-107.6 989.3,-107.6"
         style="fill:#002869;fill-opacity:1;fill-rule:nonzero;stroke:none"
         id="path86" /><path
         d="m 12664.5,7549.9 c 410.7,0 720.1,57.9 724.3,58.6 19.8,3.8 32.7,22.9 28.9,42.7 -3.7,19.8 -22.7,32.7 -42.6,29 -5.6,-1.1 -568.9,-106.2 -1180.8,-29.3 -812.6,102.1 -1320.8,459.5 -1510.6,1062.2 -6.1,19.2 -26.6,29.8 -45.7,23.8 -19.3,-6 -29.9,-26.5 -23.9,-45.7 196.5,-623.9 740.3,-1008.7 1572.8,-1112.9 166,-20.8 328.5,-28.4 477.6,-28.4"
         style="fill:#002869;fill-opacity:1;fill-rule:nonzero;stroke:none"
         id="path88" /></g></g></svg>
