<svg width="37" height="37" viewBox="0 0 37 37" fill="none" xmlns="http://www.w3.org/2000/svg">
<path d="M33.9167 24.9595C33.9167 30.5712 30.5713 33.9166 24.9596 33.9166H23.125C22.2771 33.9166 21.5833 33.2228 21.5833 32.3749V23.4795C21.5833 23.0633 21.9225 22.7087 22.3387 22.7087L25.0521 22.6624C25.2679 22.647 25.4529 22.4929 25.4992 22.277L26.0388 19.3324C26.085 19.0549 25.8692 18.7928 25.5763 18.7928L22.2925 18.8391C21.8608 18.8391 21.5217 18.4999 21.5063 18.0837L21.4446 14.3066C21.4446 14.0599 21.645 13.8441 21.9071 13.8441L25.6071 13.7824C25.8692 13.7824 26.0696 13.582 26.0696 13.3199L26.0079 9.6199C26.0079 9.35782 25.8075 9.15742 25.5454 9.15742L21.3829 9.2191C18.8238 9.26535 16.7888 11.362 16.835 13.9212L16.9121 18.1608C16.9275 18.5924 16.5884 18.9316 16.1567 18.947L14.3067 18.9778C14.0446 18.9778 13.8442 19.1782 13.8442 19.4403L13.8904 22.3695C13.8904 22.6316 14.0908 22.832 14.3529 22.832L16.2029 22.8012C16.6346 22.8012 16.9737 23.1403 16.9892 23.5566L17.1279 32.3441C17.1433 33.2074 16.4496 33.9166 15.5862 33.9166H12.0404C6.42876 33.9166 3.08334 30.5712 3.08334 24.9441V12.0403C3.08334 6.42866 6.42876 3.08325 12.0404 3.08325H24.9596C30.5713 3.08325 33.9167 6.42866 33.9167 12.0403V24.9595Z" fill="white"/>
</svg>
