<svg width="37" height="37" viewBox="0 0 37 37" fill="none" xmlns="http://www.w3.org/2000/svg">
<path d="M24.9596 3.08325H12.0404C6.42876 3.08325 3.08334 6.42867 3.08334 12.0403V24.9441C3.08334 30.5712 6.42876 33.9166 12.0404 33.9166H24.9442C30.5558 33.9166 33.9013 30.5712 33.9013 24.9595V12.0403C33.9167 6.42867 30.5713 3.08325 24.9596 3.08325ZM18.5 24.4816C15.2008 24.4816 12.5183 21.7991 12.5183 18.4999C12.5183 15.2008 15.2008 12.5183 18.5 12.5183C21.7992 12.5183 24.4817 15.2008 24.4817 18.4999C24.4817 21.7991 21.7992 24.4816 18.5 24.4816ZM27.6267 10.6066C27.5496 10.7916 27.4417 10.9612 27.3029 11.1153C27.1488 11.2541 26.9792 11.362 26.7942 11.4391C26.6092 11.5162 26.4088 11.5624 26.2083 11.5624C25.7921 11.5624 25.4067 11.4083 25.1138 11.1153C24.975 10.9612 24.8671 10.7916 24.79 10.6066C24.7129 10.4216 24.6667 10.2212 24.6667 10.0208C24.6667 9.82034 24.7129 9.61992 24.79 9.43492C24.8671 9.2345 24.975 9.08034 25.1138 8.92617C25.4683 8.57159 26.0079 8.402 26.5013 8.50992C26.6092 8.52534 26.7017 8.55617 26.7942 8.60242C26.8867 8.63325 26.9792 8.6795 27.0717 8.74117C27.1488 8.78742 27.2258 8.8645 27.3029 8.92617C27.4417 9.08034 27.5496 9.2345 27.6267 9.43492C27.7038 9.61992 27.75 9.82034 27.75 10.0208C27.75 10.2212 27.7038 10.4216 27.6267 10.6066Z" fill="white"/>
</svg>
