<svg width="45" height="45" viewBox="0 0 45 45" fill="none" xmlns="http://www.w3.org/2000/svg">
<path d="M39.375 14.5312H5.625C4.85625 14.5312 4.21875 13.8937 4.21875 13.125C4.21875 12.3562 4.85625 11.7188 5.625 11.7188H39.375C40.1437 11.7188 40.7812 12.3562 40.7812 13.125C40.7812 13.8937 40.1437 14.5312 39.375 14.5312Z" fill="#043BFF"/>
<path d="M39.375 23.9062H5.625C4.85625 23.9062 4.21875 23.2687 4.21875 22.5C4.21875 21.7312 4.85625 21.0938 5.625 21.0938H39.375C40.1437 21.0938 40.7812 21.7312 40.7812 22.5C40.7812 23.2687 40.1437 23.9062 39.375 23.9062Z" fill="#043BFF"/>
<path d="M39.375 33.2812H5.625C4.85625 33.2812 4.21875 32.6437 4.21875 31.875C4.21875 31.1062 4.85625 30.4688 5.625 30.4688H39.375C40.1437 30.4688 40.7812 31.1062 40.7812 31.875C40.7812 32.6437 40.1437 33.2812 39.375 33.2812Z" fill="#043BFF"/>
</svg>
