<?xml version="1.0" encoding="UTF-8" standalone="no"?>
<!-- Created with Inkscape (http://www.inkscape.org/) -->

<svg
   version="1.1"
   id="svg2"
   xml:space="preserve"
   width="889.33331"
   height="666.66669"
   viewBox="0 0 889.33331 666.66669"
   sodipodi:docname="iStock-1189281313.eps"
   xmlns:inkscape="http://www.inkscape.org/namespaces/inkscape"
   xmlns:sodipodi="http://sodipodi.sourceforge.net/DTD/sodipodi-0.dtd"
   xmlns="http://www.w3.org/2000/svg"
   xmlns:svg="http://www.w3.org/2000/svg"><defs
     id="defs6" /><sodipodi:namedview
     id="namedview4"
     pagecolor="#ffffff"
     bordercolor="#666666"
     borderopacity="1.0"
     inkscape:pageshadow="2"
     inkscape:pageopacity="0.0"
     inkscape:pagecheckerboard="0" /><g
     id="g8"
     inkscape:groupmode="layer"
     inkscape:label="ink_ext_XXXXXX"
     transform="matrix(1.3333333,0,0,-1.3333333,0,666.66667)"><g
       id="g10"
       transform="scale(0.1)"><path
         d="M 6670,5000 V 0 H 0 v 5000 h 6670"
         style="fill:#e8e2e4;fill-opacity:1;fill-rule:nonzero;stroke:none"
         id="path12" /><path
         d="M 6670,4623.3 V 0 H 0 v 1877.3 c 160,140.8 346.395,242.3 467.492,484.3 111.801,223.6 -13.5,474.1 217.699,782.7 234.7,313.2 479.599,195.3 660.399,616.4 132.9,309.4 440.9,465.6 709.2,373.2 133.9,86.5 321,139.6 585.2,83.6 755,-160 908.79,97.87 1358.65,192.11 574.68,120.39 777.13,-13.04 1101.18,-67.04 560,-93.34 850.18,367.43 1570.18,280.73"
         style="fill:#002869;fill-opacity:1;fill-rule:nonzero;stroke:none"
         id="path14" /><path
         d="M 2672.41,1776.67 C 2502.33,2386.14 2543.82,2985.33 2543.82,2985.33 2985.01,2742.5 3098.2,2154.86 3154.84,2050 3578.18,1266.35 2831.88,1205.25 2672.41,1776.67"
         style="fill:#f7f2ed;fill-opacity:1;fill-rule:nonzero;stroke:none"
         id="path16" /><path
         d="M 2802.68,1811.17 C 3203.64,1150.22 1595.01,1240.01 1501.17,1639.8 l -466.86,-42.99 c -109.091,511.86 -84.298,1405.69 1026.75,1490.4 698.95,53.29 971.21,-613.31 1093.78,-1232.21 0,0 -414.72,59.3 -352.16,-43.83"
         style="fill:#f7f2ed;fill-opacity:1;fill-rule:nonzero;stroke:none"
         id="path18" /><path
         d="m 1666.87,1867.43 c 442.35,-123.15 880.64,-79.93 1060.64,88.4 15.17,44.2 742.5,-628.71 262.5,-1375.83 1.05,-50.68 80,-407.5 105.59,-580 L 1180.01,0 c -8.41,250.082 -9.48,740 142.79,1101.42 126.01,299.11 282.53,616.56 344.07,766.01"
         style="fill:#ed715d;fill-opacity:1;fill-rule:nonzero;stroke:none"
         id="path20" /><path
         d="m 1908.19,3508.98 -77.01,-496.76 c -14.11,-128.13 431.14,-152.19 451.64,-13.48 v 198.06 l -374.63,312.18"
         style="fill:#ed715d;fill-opacity:1;fill-rule:nonzero;stroke:none"
         id="path22" /><path
         d="m 2454.14,3549.83 c 4.2,-26.66 9.58,-50.8 10.22,-77.32 0.78,-34.5 -3.82,-69.94 -14.29,-103.64 -27.83,-89.6 -77.32,-210.65 -167.25,-224.89 -192.48,-30.48 -416.76,141.67 -410.05,377.48 5.86,205.77 173.5,535.35 245.7,419.9 112.04,-179.15 214.78,-98.3 293.43,-208.26 16.48,-23.03 32.33,-52.34 36.98,-122.59 1.49,-22.56 2.4,-42.29 5.26,-60.68"
         style="fill:#fdb98d;fill-opacity:1;fill-rule:nonzero;stroke:none"
         id="path24" /><path
         d="m 2133.29,3407.99 c 5.9,-49.74 -29.63,-94.85 -79.36,-100.76 -49.74,-5.91 -94.84,29.62 -100.76,79.36 -5.9,49.73 29.63,94.84 79.36,100.75 49.74,5.91 94.85,-29.62 100.76,-79.35"
         style="fill:#ed715d;fill-opacity:1;fill-rule:nonzero;stroke:none"
         id="path26" /><path
         d="m 2464.36,3472.51 c 0.78,-34.5 -1.99,-69.86 -14.29,-103.64 -41.78,3.83 -76.69,36.32 -81.84,79.66 -5.91,49.76 29.61,94.84 79.36,100.76 2.25,0.26 4.4,0.4 6.55,0.54 4.2,-26.66 9.58,-50.8 10.22,-77.32"
         style="fill:#ed715d;fill-opacity:1;fill-rule:nonzero;stroke:none"
         id="path28" /><path
         d="m 2327.3,3341.63 c -0.21,0.28 -0.44,0.54 -0.72,0.79 -2.03,1.82 -5.17,1.65 -7,-0.39 -50.72,-56.6 -113.24,-10.28 -115.88,-8.28 -2.19,1.65 -5.3,1.23 -6.96,-0.95 -1.64,-2.18 -1.25,-5.31 0.94,-6.95 0.72,-0.55 72.41,-53.92 129.29,9.56 1.59,1.77 1.67,4.36 0.33,6.22"
         style="fill:#ed715d;fill-opacity:1;fill-rule:nonzero;stroke:none"
         id="path30" /><path
         d="m 2305.18,3414.08 c -1.03,-2.24 -2.34,-4.42 -3.93,-6.49 -13.21,-17.21 -42.11,-22.71 -67.23,-12.8 -2.54,1.01 -3.8,3.89 -2.78,6.44 0.91,2.7 3.89,3.81 6.44,2.79 24.08,-9.5 46.67,-2.13 55.68,9.61 7.21,9.3 6.13,21.09 -2.81,33.14 -45.33,61.19 -47.49,103.61 -47.56,105.38 -0.11,2.74 2.02,5.05 4.75,5.16 2.73,0.11 5.04,-2.02 5.17,-4.75 0.02,-0.41 2.31,-41.42 45.62,-99.87 9.78,-13.21 12.04,-26.9 6.65,-38.61"
         style="fill:#ed715d;fill-opacity:1;fill-rule:nonzero;stroke:none"
         id="path32" /><path
         d="M 2087.4,4107.54 C 1495.2,3869.58 741.855,2276.51 1061.43,2429.5 c 164.49,393 575.25,340.5 785.41,546.27 127.65,124.99 112.91,330.82 111.65,582.52 -1.07,213.52 246.88,138.88 233.19,339.26 -15.17,222.15 -104.28,209.99 -104.28,209.99"
         style="fill:#002869;fill-opacity:1;fill-rule:nonzero;stroke:none"
         id="path34" /><path
         d="m 2097.61,3515.26 c 48.38,0 82.1,28.56 82.59,28.99 2.31,2 2.56,5.5 0.56,7.81 -2,2.33 -5.51,2.56 -7.83,0.57 -2.65,-2.27 -65.47,-55.16 -142.52,-5.09 -2.56,1.65 -6.01,0.94 -7.67,-1.64 -1.67,-2.57 -0.95,-6 1.62,-7.67 26.28,-17.08 51.27,-22.97 73.25,-22.97"
         style="fill:#002869;fill-opacity:1;fill-rule:nonzero;stroke:none"
         id="path36" /><path
         d="m 2346.65,3555.93 c 53.87,0 87.56,35.48 87.97,35.94 2.08,2.24 1.95,5.74 -0.28,7.83 -2.25,2.08 -5.76,1.96 -7.85,-0.28 -1.89,-2.03 -47.31,-49.49 -118.01,-25.99 -2.96,0.96 -6.05,-0.61 -7.03,-3.51 -0.96,-2.91 0.61,-6.05 3.52,-7.02 14.91,-4.96 28.87,-6.97 41.68,-6.97"
         style="fill:#002869;fill-opacity:1;fill-rule:nonzero;stroke:none"
         id="path38" /><path
         d="m 2066.08,1021.69 c 53.4,-14.69 103.3,-55.241 133.85,-61.721 68.42,-14.528 102.77,-21.821 106.78,-35.59 16.19,-55.707 -157.6,-1.617 -174.13,-38.129 0.65,-18.32 43.13,-54.801 75.54,-77 38.83,-26.598 170.16,-72.418 155.41,-96.371 -12.37,-20.117 -109.2,10.691 -139.21,26.312 31.09,-16.48 174.97,-72.902 146.64,-100.48 -20.76,-20.199 -178.15,58.391 -198.79,69.391 9.73,-5.77 163.42,-75.821 141.01,-94.723 -25.96,-21.899 -158.87,51.793 -179.5,62.801 12.23,-7.41 146.06,-63.539 117,-85.95 -18,-13.878 -147.17,41.512 -167.83,52.481 -91.06,48.371 -270.04,246.418 -287.83,274.898 l 69.17,145.071 c 0,0 69.35,-9.55 101.32,-18.24 39.98,-10.85 80.54,-17.24 100.57,-22.75"
         style="fill:#fdb98d;fill-opacity:1;fill-rule:nonzero;stroke:none"
         id="path40" /><path
         d="m 1827.11,844.48 c -147.62,22.629 -435.84,175.89 -595.26,380.53 -392.479,503.8 -159.94,788.83 35.18,799.95 127.01,7.24 403.68,-4.09 396.51,-91.18 -20.08,-243.78 20.76,-640.47 303.64,-872.73 26.91,-56.55 -65.25,-228.038 -140.07,-216.57"
         style="fill:#f7f2ed;fill-opacity:1;fill-rule:nonzero;stroke:none"
         id="path42" /><path
         d="m 2717.52,327.5 c -2.85,0 -5.57,1.629 -6.83,4.379 -1.72,3.769 -0.06,8.23 3.71,9.953 165.97,75.656 254.98,220.59 255.86,222.047 2.13,3.551 6.73,4.68 10.3,2.543 3.54,-2.141 4.68,-6.75 2.53,-10.301 -0.9,-1.492 -92.33,-150.379 -262.47,-227.949 -1,-0.461 -2.06,-0.672 -3.1,-0.672"
         style="fill:#002869;fill-opacity:1;fill-rule:nonzero;stroke:none"
         id="path44" /><path
         d="m 2966.7,1739.34 c -39.34,-13.67 -86.18,-53.49 -144.62,-74.09 -69.55,-24.53 -104.84,-35.73 -107.31,-50.65 -9.98,-60.36 165.19,18.07 187.08,-18.08 1.61,-19.26 -38.29,-62.78 -69.43,-90.09 -37.32,-32.72 -169.06,-97.14 -150.62,-120.38 15.48,-19.5 112.99,24.89 142.45,45.01 -30.49,-21.16 -180.2,-80.68 -147.08,-105.99 24.27,-18.55 185.34,65.87 205.57,79.97 -9.47,-7.26 -176.64,-86.73 -150.81,-103.71 29.93,-19.67 174.89,61 195.11,75.12 -11.88,-9.29 -144.95,-84.83 -111.71,-104.65 20.59,-12.27 148.87,61.92 169.12,75.99 89.27,62.06 204.98,217.21 204.9,279.12 -0.08,69.68 -49.34,121.84 -102.62,128.55 -32.63,4.11 -59.41,4.95 -120.03,-16.12"
         style="fill:#fdb98d;fill-opacity:1;fill-rule:nonzero;stroke:none"
         id="path46" /><path
         d="m 2724.15,1928.33 c -1.36,0 -2.74,0.37 -3.98,1.14 -3.51,2.21 -4.57,6.84 -2.37,10.34 74.34,118.58 67.22,237.03 48.15,315.5 -25.98,106.96 -86.62,190.74 -133.09,218.24 -3.57,2.1 -4.75,6.7 -2.64,10.27 2.12,3.55 6.73,4.75 10.28,2.64 49.18,-29.1 113.07,-116.62 140.03,-227.6 19.75,-81.29 27.09,-204.01 -50.02,-327.01 -1.43,-2.28 -3.87,-3.52 -6.36,-3.52"
         style="fill:#ed715d;fill-opacity:1;fill-rule:nonzero;stroke:none"
         id="path48" /><path
         d="m 1679.76,1720.83 c -3.5,0 -7.73,8.16 -8.44,11.72 -37.92,190.81 19,531.84 19.57,535.33 0.67,4.07 4.49,6.87 8.61,6.19 4.09,-0.66 6.86,-4.52 6.19,-8.61 -0.57,-3.45 -55.95,-347.54 -18.56,-535.67 0.81,-4.06 -1.83,-8.01 -5.9,-8.81 -0.49,-0.1 -0.98,-0.15 -1.47,-0.15"
         style="fill:#ed715d;fill-opacity:1;fill-rule:nonzero;stroke:none"
         id="path50" /></g></g></svg>
