<?xml version="1.0" encoding="UTF-8" standalone="no"?>
<!-- Created with Inkscape (http://www.inkscape.org/) -->

<svg
   version="1.1"
   id="svg2"
   xml:space="preserve"
   width="1733.3333"
   height="1333.3333"
   viewBox="0 0 1733.3333 1333.3333"
   sodipodi:docname="iStock-1257369300.eps"
   xmlns:inkscape="http://www.inkscape.org/namespaces/inkscape"
   xmlns:sodipodi="http://sodipodi.sourceforge.net/DTD/sodipodi-0.dtd"
   xmlns="http://www.w3.org/2000/svg"
   xmlns:svg="http://www.w3.org/2000/svg"><defs
     id="defs6" /><sodipodi:namedview
     id="namedview4"
     pagecolor="#ffffff"
     bordercolor="#666666"
     borderopacity="1.0"
     inkscape:pageshadow="2"
     inkscape:pageopacity="0.0"
     inkscape:pagecheckerboard="0" /><g
     id="g8"
     inkscape:groupmode="layer"
     inkscape:label="ink_ext_XXXXXX"
     transform="matrix(1.3333333,0,0,-1.3333333,0,1333.3333)"><g
       id="g10"
       transform="scale(0.1)"><path
         d="M 13000,10000 V 0 H 0 v 10000 h 13000"
         style="fill:#e8e2e4;fill-opacity:1;fill-rule:nonzero;stroke:none"
         id="path12" /><path
         d="m 3132.26,8407.47 c 317.87,-472.51 -7.59,-1049.41 1193.52,-1798.73 558.59,-348.42 250.21,-970.61 1057.24,-1239.04 43.54,-14.45 1207.65,22.92 1209.31,22.28 4.14,-1.56 8.19,-3.13 12.24,-4.69 128.51,-49.44 212.56,79.09 270.31,62.71 905.17,-256.73 1160.57,34.38 1394.8,485.85 405.04,780.69 1172.91,593.73 1357.7,1538.58 110.89,567.01 152.01,874.92 690.82,1284.05 497.1,377.42 605.7,869.53 664.8,1241.52 H 2012.26 c 0,-1010 779.4,-1086.23 1120,-1592.53"
         style="fill:#002869;fill-opacity:1;fill-rule:nonzero;stroke:none"
         id="path14" /><path
         d="M 6794.74,1542.59 C 5986.31,1461.64 3837.38,2980 3837.38,2980 4248.2,3356.62 6477.71,2782.97 6477.71,2782.97 6594.7,2743.69 6864.18,1571.3 6794.74,1542.59"
         style="fill:#002869;fill-opacity:1;fill-rule:nonzero;stroke:none"
         id="path16" /><path
         d="M 6273.13,1555.09 C 7081.55,1474.14 9312.98,3001.43 9312.98,3001.43 8682.38,3350.99 6590.16,2795.47 6590.16,2795.47 6473.17,2756.19 6203.68,1583.8 6273.13,1555.09"
         style="fill:#002869;fill-opacity:1;fill-rule:nonzero;stroke:none"
         id="path18" /><path
         d="m 5210.71,2556.67 c 0,0 115.58,412.65 368.8,794.32 507.96,-59.03 1331.25,-67.11 1830.98,-10.99 0,0 243.56,-473.33 302.22,-769.96 56.28,-284.5 -2240.45,-548.36 -2502,-13.37"
         style="fill:#002869;fill-opacity:1;fill-rule:nonzero;stroke:none"
         id="path20" /><path
         d="m 6869.58,1499.79 c 0,0 35.53,299.65 -115.97,322.29 -254.16,37.99 -608.68,72.05 -769,79.69 -209.93,10.01 -392.03,-87.69 -414.37,-201.52 -29.34,-149.46 234.39,-253.3 409.46,-253.96 669.35,-2.52 867.67,75.35 889.88,53.5"
         style="fill:#fdb88e;fill-opacity:1;fill-rule:nonzero;stroke:none"
         id="path22" /><path
         d="m 6806.01,1489.57 c 0,0 3017.74,217.76 2637.74,1335.92 -337.18,992.15 -2750.11,-953.72 -2750.11,-953.72 -70.38,-47.98 36.32,-400.26 112.37,-382.2"
         style="fill:#016099;fill-opacity:1;fill-rule:nonzero;stroke:none"
         id="path24" /><path
         d="m 6128.96,1391.58 c 0,0 -31.11,300.2 127.99,320.45 81.14,10.33 171.98,20.16 263.85,28.97 210.35,20.17 426.07,35.05 543.03,38.61 220.03,6.7 408.74,-93.86 429.82,-208.03 27.67,-149.92 -250.6,-249.6 -433.94,-247.5 -700.95,8.01 -907.05,89 -930.75,67.5"
         style="fill:#fdb88e;fill-opacity:1;fill-rule:nonzero;stroke:none"
         id="path26" /><path
         d="m 6732.81,1759.48 c 133.42,10.49 253.77,17.78 331.02,20.13 220.03,6.7 408.74,-93.86 429.82,-208.03 27.67,-149.92 -250.6,-249.6 -433.94,-247.5 -120.49,1.37 -226.36,4.91 -319.19,9.71 l 105.78,22.28 c 141.94,-4.86 350.67,48.68 358.19,169.52 10.64,171.18 -230,228.12 -329.79,218.33 l -141.89,15.56"
         style="fill:#ed715d;fill-opacity:1;fill-rule:nonzero;stroke:none"
         id="path28" /><path
         d="m 6246.98,1710.59 c 0.21,0 0.43,0.01 0.65,0.02 204.82,10.54 682.3,35.33 692.39,37.85 6.7,1.68 10.76,8.47 9.09,15.16 -1.61,6.46 -7.98,10.49 -14.44,9.25 -20,-2.56 -503.27,-27.77 -688.33,-37.3 -6.89,-0.35 -12.19,-6.23 -11.83,-13.13 0.34,-6.66 5.85,-11.85 12.47,-11.85"
         style="fill:#ed715d;fill-opacity:1;fill-rule:nonzero;stroke:none"
         id="path30" /><path
         d="m 6910.68,1330.36 c 10.67,0 20.95,0.08 30.87,0.23 6.9,0.11 12.41,5.78 12.31,12.69 -0.1,6.91 -5.44,12.29 -12.69,12.31 -155.83,-2.36 -436.27,14.39 -811.08,48.45 -7.13,0.53 -12.95,-4.47 -13.58,-11.32 -0.63,-6.88 4.44,-12.96 11.32,-13.59 248.84,-22.59 580.59,-48.77 782.85,-48.77"
         style="fill:#ed715d;fill-opacity:1;fill-rule:nonzero;stroke:none"
         id="path32" /><path
         d="m 6202.5,1352.5 c 0,0 -3013.63,327.61 -2590.18,1459.05 C 4005.65,3862.53 6310,1795 6310,1795 c 67.09,-52.48 -32.8,-465.5 -107.5,-442.5"
         style="fill:#016099;fill-opacity:1;fill-rule:nonzero;stroke:none"
         id="path34" /><path
         d="m 10218.6,3372.65 c 18.7,25.37 58.5,129.79 53.5,175.28 -8.5,76.54 -79.5,191.4 -113.8,174.22 -50.4,-25.25 10.5,-74.1 -12.3,-154.68 -14,-49.46 -85.4,-17.48 -145.6,-57.76 -20.49,-13.69 -40.85,62.53 -1.62,94.67 42.62,34.94 180.22,81.4 143.72,129.67 -24.6,32.64 -110.1,-43.04 -237.66,-50.73 -90.4,-5.45 -157.26,-130.24 -205.04,-146.86 -96.31,-33.5 -446.74,72.48 -763.15,107.17 -62,6.8 -968.63,15.38 -507.53,-380.37 144.21,-123.76 1074.57,11.88 1274.53,15.58 54.02,-0.14 207.55,4.01 278.54,9.62 101.01,7.97 218.61,60.06 236.41,84.19"
         style="fill:#fdb88e;fill-opacity:1;fill-rule:nonzero;stroke:none"
         id="path36" /><path
         d="m 9861.83,3453.05 c 42.62,-9.01 93.62,-5.57 130.61,35.34 4.83,5.35 4.42,13.59 -0.93,18.42 -5.35,4.81 -13.58,4.41 -18.41,-0.92 -58.15,-64.32 -154.26,-9.97 -158.32,-7.62 -6.24,3.58 -14.21,1.47 -17.81,-4.75 -3.61,-6.23 -1.49,-14.19 4.73,-17.81 14.68,-8.52 36.07,-17.58 60.13,-22.66"
         style="fill:#ed715d;fill-opacity:1;fill-rule:nonzero;stroke:none"
         id="path38" /><path
         d="m 10130,3441.28 c 2.6,-0.54 5.3,-0.32 7.9,0.78 84.4,36.32 74.7,144.23 57.7,196.21 -2.2,6.83 -9.5,10.59 -16.4,8.37 -6.8,-2.22 -10.6,-9.58 -8.4,-16.42 0.4,-1.29 40.4,-128.21 -43.2,-164.2 -6.7,-2.85 -9.7,-10.52 -6.9,-17.13 1.8,-4.05 5.3,-6.76 9.3,-7.61"
         style="fill:#ed715d;fill-opacity:1;fill-rule:nonzero;stroke:none"
         id="path40" /><path
         d="m 5579.51,3350.99 c 0,0 -72.26,865.91 14.71,1699.01 88.53,848.08 1729.83,841.41 1807.45,81.23 51.36,-502.98 8.82,-1791.23 8.82,-1791.23 -23.77,-91.46 -1809.53,-112.23 -1830.98,10.99"
         style="fill:#ed715d;fill-opacity:1;fill-rule:nonzero;stroke:none"
         id="path42" /><path
         d="M 6378.46,5758.78 C 8160,5765.74 7940,4479.49 8340,4093.93 c 397.13,-382.8 1303.75,-520.18 1303.75,-520.18 45,-8.75 66.78,-320.26 16.52,-345.96 0,0 -1027.87,-344.11 -1800.27,25.54 -536.67,256.84 -781.55,687.27 -863.33,1103.34 -189.96,966.39 -719.34,1475.48 -618.21,1402.11"
         style="fill:#ed715d;fill-opacity:1;fill-rule:nonzero;stroke:none"
         id="path44" /><path
         d="m 2845.28,3372.65 c -18.69,25.37 -58.54,129.79 -53.49,175.28 8.48,76.54 79.48,191.4 113.77,174.22 50.37,-25.25 -10.56,-74.1 12.27,-154.68 14.01,-49.46 85.44,-17.48 145.65,-57.76 20.46,-13.69 40.82,62.53 1.59,94.67 -42.65,34.94 -180.25,81.4 -143.75,129.67 24.68,32.64 110.12,-43.04 237.69,-50.73 90.4,-5.45 157.26,-130.24 205.04,-146.86 96.31,-33.5 446.74,72.48 763.15,107.17 62,6.8 968.63,15.38 507.53,-380.37 -144.22,-123.76 -1074.57,11.88 -1274.53,15.58 -54.02,-0.14 -207.55,4.01 -278.54,9.62 -100.98,7.97 -218.6,60.06 -236.38,84.19"
         style="fill:#fdb88e;fill-opacity:1;fill-rule:nonzero;stroke:none"
         id="path46" /><path
         d="m 3202.02,3453.05 c -42.62,-9.01 -93.62,-5.57 -130.61,35.34 -4.84,5.35 -4.42,13.59 0.92,18.42 5.36,4.81 13.59,4.41 18.42,-0.92 58.15,-64.32 154.26,-9.97 158.32,-7.62 6.24,3.58 14.21,1.47 17.81,-4.75 3.61,-6.23 1.49,-14.19 -4.73,-17.81 -14.68,-8.52 -36.07,-17.58 -60.13,-22.66"
         style="fill:#ed715d;fill-opacity:1;fill-rule:nonzero;stroke:none"
         id="path48" /><path
         d="m 2933.83,3441.28 c -2.55,-0.54 -5.27,-0.32 -7.84,0.78 -84.41,36.32 -74.71,144.23 -57.78,196.21 2.23,6.83 9.59,10.59 16.42,8.37 6.85,-2.22 10.6,-9.58 8.38,-16.42 -0.41,-1.29 -40.36,-128.21 43.29,-164.2 6.61,-2.85 9.67,-10.52 6.82,-17.13 -1.74,-4.05 -5.29,-6.76 -9.29,-7.61"
         style="fill:#ed715d;fill-opacity:1;fill-rule:nonzero;stroke:none"
         id="path50" /><path
         d="M 6685.39,5758.78 C 4915,5765.74 5083.33,4492.79 4683.33,4107.23 4286.2,3724.43 3420.1,3573.75 3420.1,3573.75 c -45,-8.75 -66.78,-320.26 -16.52,-345.96 0,0 1027.87,-344.11 1800.27,25.54 536.67,256.84 781.55,687.27 863.33,1103.34 189.96,966.39 719.34,1475.48 618.21,1402.11"
         style="fill:#ed715d;fill-opacity:1;fill-rule:nonzero;stroke:none"
         id="path52" /><path
         d="m 7249.96,4150 c 201.77,-260 340.64,-578.3 346.29,-877.5 9.67,-511.95 -331.73,-966.51 -1133.54,-966.51 -782.41,0 -1108.53,441.14 -1090.52,942.56 10.88,302.94 163.71,621.45 370.97,901.45 h 1506.8"
         style="fill:#ed715d;fill-opacity:1;fill-rule:nonzero;stroke:none"
         id="path54" /><path
         d="m 7586.26,3386.14 c -5.92,0 -11.17,4.21 -12.29,10.24 -37.58,204.37 -81.53,339.48 -116.84,448.04 -57.07,175.48 -91.53,281.39 -28.08,486.61 58.16,188.08 31.96,352.88 -75.79,476.58 -4.54,5.2 -3.99,13.1 1.21,17.63 5.23,4.55 13.11,3.99 17.64,-1.21 113.73,-130.57 141.68,-303.6 80.83,-500.39 -61.1,-197.63 -29.47,-294.9 27.97,-471.48 35.53,-109.27 79.76,-245.26 117.65,-451.25 1.25,-6.8 -3.24,-13.31 -10.03,-14.56 -0.77,-0.14 -1.53,-0.21 -2.27,-0.21"
         style="fill:#002869;fill-opacity:1;fill-rule:nonzero;stroke:none"
         id="path56" /><path
         d="m 5389.83,3338.49 c -0.57,0 -1.13,0.04 -1.71,0.11 -6.84,0.94 -11.63,7.24 -10.69,14.09 32.15,234.72 92.04,390.43 140.16,515.56 61.66,160.33 106.21,276.17 50.79,455.39 -64.49,208.59 -29.63,389.09 100.81,521.99 4.85,4.92 12.76,4.99 17.68,0.16 4.93,-4.83 5,-12.74 0.17,-17.67 -123.61,-125.93 -156.38,-297.83 -94.77,-497.09 57.97,-187.49 12.11,-306.73 -51.35,-471.75 -47.66,-123.92 -106.96,-278.14 -138.72,-509.99 -0.86,-6.26 -6.22,-10.8 -12.37,-10.8"
         style="fill:#002869;fill-opacity:1;fill-rule:nonzero;stroke:none"
         id="path58" /><path
         d="m 6234.51,3875.28 c -4.98,0 -9.69,3 -11.63,7.91 -2.53,6.42 0.61,13.68 7.03,16.21 300.47,118.72 521.75,4.36 531.03,-0.58 6.08,-3.23 8.4,-10.79 5.16,-16.89 -3.21,-6.11 -10.8,-8.42 -16.88,-5.19 -2.18,1.14 -220.88,113.67 -510.12,-0.58 -1.51,-0.59 -3.06,-0.88 -4.59,-0.88"
         style="fill:#002869;fill-opacity:1;fill-rule:nonzero;stroke:none"
         id="path60" /><path
         d="m 6789.05,6208.93 23.33,-522.26 c 15.16,-137.69 -623.42,-158.92 -645.45,-9.86 v 212.83 l 622.12,319.29"
         style="fill:#fdb88e;fill-opacity:1;fill-rule:nonzero;stroke:none"
         id="path62" /><path
         d="m 6711.11,6379.54 c 3.32,-434.56 -317.2,-550.08 -558.89,-515.62 -167.75,23.93 -248.68,233.06 -279.1,334.92 -0.1,0.38 -0.3,0.86 -0.41,1.24 -14.97,45.77 -22.03,94.08 -21.79,141.26 0.22,20.82 2.47,40.61 5.39,60.6 2.14,15.09 4.66,30.39 6.88,46.25 3.49,25.47 4.37,52.72 5.85,83.81 4.76,96.94 25.93,137.77 48.1,169.89 105.83,153.52 249.43,44.45 399.64,294.15 96.87,160.85 392.16,-332.59 394.33,-616.5"
         style="fill:#fdb88e;fill-opacity:1;fill-rule:nonzero;stroke:none"
         id="path64" /><path
         d="m 6361.72,6298.94 c -18.68,-74.86 48.7,-145.17 129.73,-122.2 24.59,6.97 45.49,24.01 57.27,46.69 39.39,75.81 -18.06,157.18 -96.83,151.5 -43.54,-3.14 -79.61,-33.63 -90.17,-75.99"
         style="fill:#ed715d;fill-opacity:1;fill-rule:nonzero;stroke:none"
         id="path66" /><path
         d="m 5959.2,6290.26 c -4.75,-47.36 -41.43,-83.66 -86.49,-90.18 -14.97,45.77 -22.03,94.08 -21.79,141.26 0.22,20.82 2.47,40.61 5.39,60.6 4.03,0.07 8.15,-0.05 12.28,-0.46 55.72,-5.66 96.27,-55.5 90.61,-111.22"
         style="fill:#ed715d;fill-opacity:1;fill-rule:nonzero;stroke:none"
         id="path68" /><path
         d="m 6209.75,5840.65 c -5.52,0 -10,4.48 -10,9.99 0,5.53 4.48,10 9.99,10.01 2.75,0 276.33,2.05 405.06,166.56 3.38,4.35 9.67,5.13 14.03,1.71 4.35,-3.4 5.12,-9.68 1.71,-14.03 -134.79,-172.26 -409.18,-174.24 -420.79,-174.24"
         style="fill:#ed715d;fill-opacity:1;fill-rule:nonzero;stroke:none"
         id="path70" /><path
         d="m 6006.33,6448.31 c -81.91,-1.41 -114.93,44.99 -116.56,47.37 -3.53,5.14 -2.22,12.16 2.91,15.69 5.12,3.5 12.12,2.24 15.67,-2.86 1.81,-2.56 42.01,-56.93 150.29,-30.36 6.09,1.51 12.16,-2.22 13.65,-8.26 1.49,-6.06 -2.22,-12.17 -8.27,-13.65 -21.45,-5.27 -40.63,-7.64 -57.69,-7.93"
         style="fill:#002869;fill-opacity:1;fill-rule:nonzero;stroke:none"
         id="path72" /><path
         d="m 6363.13,6418.74 c -50.67,-0.87 -86.65,19.88 -89.07,21.31 -5.36,3.18 -7.14,10.1 -3.95,15.46 3.17,5.36 10.07,7.14 15.44,3.97 v 0 c 3.44,-2.02 85.49,-48.73 174.31,16.18 5.04,3.68 12.09,2.59 15.77,-2.45 3.67,-5.03 2.58,-12.09 -2.45,-15.76 -39.4,-28.8 -77.72,-38.16 -110.05,-38.71"
         style="fill:#002869;fill-opacity:1;fill-rule:nonzero;stroke:none"
         id="path74" /><path
         d="m 6139.57,6208.94 c -13.13,-0.22 -26.5,2.48 -38.34,8.18 -19.99,9.63 -32.76,26.61 -35.02,46.6 -2.92,25.69 14.43,45.21 31.21,64.09 8.33,9.37 16.94,19.06 22.67,29.16 19.85,34.95 25.93,96.06 25.99,96.66 0.6,6.22 6.19,10.75 12.31,10.16 6.2,-0.6 10.75,-6.11 10.16,-12.31 -0.26,-2.69 -6.58,-66.49 -28.83,-105.66 -6.91,-12.16 -16.32,-22.76 -25.43,-33.01 -14.72,-16.56 -27.43,-30.87 -25.66,-46.55 1.89,-16.59 14.84,-25.16 22.39,-28.8 17.92,-8.62 41.33,-7.82 56.9,1.96 5.26,3.3 12.23,1.73 15.56,-3.56 3.31,-5.28 1.72,-12.24 -3.56,-15.56 -11.62,-7.29 -25.85,-11.11 -40.35,-11.36"
         style="fill:#ed715d;fill-opacity:1;fill-rule:nonzero;stroke:none"
         id="path76" /><path
         d="m 6327.81,7358.55 c 50.88,47.71 831.74,167.14 1121.55,-624.88 68.62,-187.52 622.3,-1110.6 622.3,-1110.6 -298.03,-384.32 -849.28,-400.57 -1124.28,-205.57 -234.73,166.45 -385.92,570.83 -387.01,1005.3 -10.38,435.53 -433.58,387.59 -330.37,605.8 149.37,315.78 97.81,329.95 97.81,329.95"
         style="fill:#002869;fill-opacity:1;fill-rule:nonzero;stroke:none"
         id="path78" /><path
         d="m 6139.76,6083.15 c 51.67,0 90.37,18.06 93.02,19.33 6.22,2.97 8.86,10.44 5.88,16.67 -2.99,6.22 -10.45,8.83 -16.66,5.88 v 0 c -0.95,-0.45 -96.74,-44.73 -182.59,13.64 -5.73,3.88 -13.49,2.4 -17.37,-3.31 -3.88,-5.71 -2.4,-13.48 3.31,-17.36 39.32,-26.74 79.78,-34.85 114.41,-34.85"
         style="fill:#ed715d;fill-opacity:1;fill-rule:nonzero;stroke:none"
         id="path80" /></g></g></svg>
