<svg width="31" height="31" viewBox="0 0 31 31" fill="none" xmlns="http://www.w3.org/2000/svg">
<path d="M14.8542 28.0938C7.55626 28.0938 1.61459 22.1521 1.61459 14.8542C1.61459 7.55626 7.55626 1.61459 14.8542 1.61459C22.1521 1.61459 28.0938 7.55626 28.0938 14.8542C28.0938 22.1521 22.1521 28.0938 14.8542 28.0938ZM14.8542 3.55209C8.61543 3.55209 3.55209 8.62834 3.55209 14.8542C3.55209 21.08 8.61543 26.1563 14.8542 26.1563C21.0929 26.1563 26.1563 21.08 26.1563 14.8542C26.1563 8.62834 21.0929 3.55209 14.8542 3.55209Z" fill="#043BFF"/>
<path d="M28.4167 29.3854C28.1712 29.3854 27.9258 29.295 27.7321 29.1012L25.1487 26.5179C24.7742 26.1433 24.7742 25.5233 25.1487 25.1487C25.5233 24.7742 26.1433 24.7742 26.5179 25.1487L29.1012 27.7321C29.4758 28.1067 29.4758 28.7267 29.1012 29.1012C28.9075 29.295 28.6621 29.3854 28.4167 29.3854Z" fill="#043BFF"/>
</svg>
