<svg width="31" height="31" viewBox="0 0 31 31" fill="none" xmlns="http://www.w3.org/2000/svg">
<path d="M14.8541 28.0938C7.55617 28.0938 1.6145 22.1521 1.6145 14.8542C1.6145 7.55626 7.55617 1.61459 14.8541 1.61459C22.152 1.61459 28.0937 7.55626 28.0937 14.8542C28.0937 22.1521 22.152 28.0938 14.8541 28.0938ZM14.8541 3.55209C8.61534 3.55209 3.552 8.62834 3.552 14.8542C3.552 21.08 8.61534 26.1563 14.8541 26.1563C21.0928 26.1563 26.1562 21.08 26.1562 14.8542C26.1562 8.62834 21.0928 3.55209 14.8541 3.55209Z" fill="#022969"/>
<path d="M28.4168 29.3854C28.1714 29.3854 27.9259 29.295 27.7322 29.1012L25.1489 26.5179C24.7743 26.1433 24.7743 25.5233 25.1489 25.1487C25.5234 24.7742 26.1434 24.7742 26.518 25.1487L29.1014 27.7321C29.4759 28.1067 29.4759 28.7267 29.1014 29.1012C28.9076 29.295 28.6622 29.3854 28.4168 29.3854Z" fill="#022969"/>
</svg>
